<svg width="258" height="307" viewBox="0 0 258 307" fill="none" xmlns="http://www.w3.org/2000/svg">
<mask id="mask0_38_704" style="mask-type:alpha" maskUnits="userSpaceOnUse" x="0" y="0" width="258" height="436">
<path fill-rule="evenodd" clip-rule="evenodd" d="M15.1642 38.6148C156.062 98.4071 200.436 186.876 148.297 304.021C217.071 224.74 241.022 99.8399 209.928 0C266.644 81.19 273.273 202.686 229.011 291.13C184.753 379.577 107.366 431.392 7.7119 436C64.618 414.153 96.9905 374.496 116.793 317.375C136.595 260.252 129.919 197.4 98.5429 145.6C122.113 197.913 124.221 253.932 104.877 313.651C14.043 257.589 -17.7882 197.654 9.38614 133.857C31.2493 90.2869 33.1733 58.5396 15.1642 38.6148Z" fill="#39B54A"/>
</mask>
<g mask="url(#mask0_38_704)">
<path d="M112.823 491.696C-28.2324 491.696 -142.58 378.578 -142.58 239.041C-142.58 99.504 -28.2324 -13.6133 112.823 -13.6133C253.878 -13.6133 368.222 99.504 368.222 239.041C368.222 378.578 253.878 491.696 112.823 491.696Z" fill="#1E1E1E"/>
<path d="M-149.437 481.453C-291.015 474.622 -400.468 361.111 -393.902 227.92C-387.336 94.727 -267.24 -7.7102 -125.659 -0.880523C15.9228 5.94945 125.373 119.46 118.806 252.652C112.24 385.847 -7.85549 488.282 -149.437 481.453Z" fill="#242424"/>
</g>
</svg>
