<svg width="211" height="356" viewBox="0 0 211 356" fill="none" xmlns="http://www.w3.org/2000/svg">
<mask id="mask0_36_113" style="mask-type:alpha" maskUnits="userSpaceOnUse" x="0" y="0" width="211" height="356">
<path fill-rule="evenodd" clip-rule="evenodd" d="M12.3818 31.5295C127.426 80.3508 163.659 152.587 121.087 248.237C177.242 183.503 196.798 81.5206 171.41 0C217.719 66.2928 223.131 165.496 186.991 237.711C150.853 309.93 87.6659 352.237 6.29694 356C52.7616 338.161 79.1942 305.781 95.3631 259.141C111.532 212.499 106.081 161.18 80.4617 118.884C99.707 161.599 101.429 207.339 85.6335 256.1C11.4664 210.325 -14.5242 161.387 7.66397 109.296C25.5156 73.7205 27.0865 47.7984 12.3818 31.5295Z" fill="#39B54A"/>
</mask>
<g mask="url(#mask0_36_113)">
<path d="M92.1213 401.476C-23.052 401.476 -116.418 309.114 -116.418 195.18C-116.418 81.2461 -23.052 -11.1157 92.1213 -11.1157C207.295 -11.1157 300.659 81.2461 300.659 195.18C300.659 309.114 207.295 401.476 92.1213 401.476Z" fill="#DFDFDF"/>
<path d="M-122.017 393.113C-237.618 387.536 -326.987 294.853 -321.626 186.1C-316.265 77.346 -218.205 -6.29542 -102.602 -0.71889C13.0013 4.85788 102.368 97.5407 97.0072 206.294C91.6459 315.049 -6.41404 398.689 -122.017 393.113Z" fill="#E8E8E8"/>
</g>
</svg>
