<svg width="304" height="60" viewBox="0 0 304 60" fill="none" xmlns="http://www.w3.org/2000/svg">
<g clip-path="url(#clip0_1_4)">
<path d="M55.8803 52.0663H0.15638V7.61658H11.4876V40.9523H33.8403V7.61658H45.1747V40.9523H49.8691C50.7605 45.2394 52.8935 49.0725 55.8803 52.0663Z" fill="#282828" stroke="#282828" stroke-miterlimit="10"/>
<path d="M91.5409 45.5067C90.2868 46.7627 88.8793 47.8725 87.3531 48.8021C87.2436 48.8705 87.131 48.9358 87.0184 49.001C83.697 50.9503 79.8219 52.0663 75.6841 52.0663H75.6591C71.6871 52.0632 67.9559 51.028 64.7251 49.2155C64.5969 49.0352 64.4718 48.8549 64.3529 48.6715V49.0042C62.8861 48.1461 61.5256 47.1233 60.2996 45.9699C58.7421 44.4995 57.3972 42.8114 56.3151 40.9523C54.4135 37.685 53.3251 33.8891 53.3251 29.8415C53.3251 25.7938 54.4135 21.9948 56.3182 18.7275C56.5653 18.2984 56.8311 17.8788 57.1063 17.4684C57.9289 16.2466 58.8734 15.1088 59.9212 14.0798C61.2441 12.771 62.7328 11.6269 64.3498 10.6788C67.6681 8.73575 71.5338 7.61969 75.6591 7.61658H75.6841C79.8219 7.61658 83.697 8.73264 87.0184 10.6819C88.8262 11.7389 90.4713 13.0446 91.91 14.5492L84.0347 22.3772C81.9643 20.1326 78.99 18.7275 75.6841 18.7275H75.6591C72.6035 18.7337 69.8324 19.9461 67.7964 21.9047C65.7072 23.9192 64.3936 26.7295 64.3561 29.8415H64.3529V29.9907C64.3529 33.2767 65.7666 36.2332 68.0247 38.2912C69.4258 39.5689 71.1491 40.5016 73.0601 40.9523C73.9014 41.1513 74.7803 41.257 75.6841 41.257C76.588 41.257 77.4668 41.1513 78.3082 40.9523C80.4443 40.4487 82.3427 39.3451 83.8189 37.8311L91.5409 45.5067Z" fill="#282828" stroke="#282828" stroke-miterlimit="10"/>
<mask id="mask0_1_4" style="mask-type:luminance" maskUnits="userSpaceOnUse" x="49" y="4" width="34" height="55">
<path d="M82.2551 4.97409H49.7284V58.1347H82.2551V4.97409Z" fill="white"/>
</mask>
<g mask="url(#mask0_1_4)">
<mask id="mask1_1_4" style="mask-type:alpha" maskUnits="userSpaceOnUse" x="49" y="6" width="28" height="47">
<path fill-rule="evenodd" clip-rule="evenodd" d="M75.2162 10.4342C60.3978 16.7227 55.7308 26.0271 61.2144 38.3475C53.9813 30.0094 51.4623 16.8734 54.7325 6.37306C48.7676 14.912 48.0705 27.6899 52.7255 36.9917C57.3803 46.2939 65.5192 51.7433 76 52.228C70.0151 49.9303 66.6104 45.7595 64.5277 39.752C62.4451 33.7443 63.1472 27.134 66.4471 21.6861C63.9682 27.188 63.7465 33.0796 65.781 39.3603C75.3341 33.4641 78.6819 27.1607 75.8239 20.451C73.5245 15.8687 73.3222 12.5298 75.2162 10.4342Z" fill="#39B54A"/>
</mask>
<g mask="url(#mask1_1_4)">
<path d="M64.9453 58.0856C79.7803 58.0856 91.8064 46.1888 91.8064 31.5134C91.8064 16.8381 79.7803 4.9413 64.9453 4.9413C50.1103 4.9413 38.0844 16.8381 38.0844 31.5134C38.0844 46.1888 50.1103 58.0856 64.9453 58.0856Z" fill="#39B54A"/>
<path d="M92.5277 57.0084C107.418 56.2899 118.929 44.3518 118.238 30.3438C117.548 16.3357 104.917 5.56216 90.0268 6.28045C75.1365 6.99877 63.6254 18.9369 64.316 32.945C65.0066 46.9533 77.6373 57.7265 92.5277 57.0084Z" fill="#88D893"/>
</g>
</g>
<path d="M149.188 40.9523V7.61658H113.615C113.762 9.24249 113.837 10.8839 113.837 12.5472C113.837 14.6363 113.719 16.7005 113.484 18.7275C113.049 22.5668 112.205 26.2881 111.004 29.8415C109.671 33.7648 107.904 37.4891 105.753 40.9523H99.9009C99.0095 45.2394 96.8765 49.0725 93.8897 52.0663H160.523V40.9523H149.188ZM118.103 40.9523C119.936 37.4549 121.397 33.7337 122.429 29.8415C123.38 26.2694 123.971 22.5482 124.161 18.7275H138.67V40.9523H118.103Z" fill="#282828" stroke="#282828" stroke-miterlimit="10"/>
<path d="M152.938 0.932642L149.661 8.93145L148.622 11.4695L146.14 17.5239L142.622 26.114H129.794L130.378 24.6887L133.312 17.5239L134.884 13.688L136.833 8.93145L140.108 0.932642H152.938Z" fill="#0071BC"/>
<path d="M215.321 18.6528H206.75V7.17507H208.978V16.6967H213.483V7.17507H215.711V16.6967H217.435V21.5141H215.321V18.6528ZM226.997 16.6967V18.6528H218.979V7.17507H226.85V9.13113H221.223V11.8955H226.086V13.7061H221.223V16.6967H226.997ZM238.503 7.17507V18.6528H236.275V13.7545H231.038V18.6528H228.794V7.17507H231.038V11.8147H236.275V7.17507H238.503ZM249.595 9.13113H245.903V18.6528H243.675V9.13113H239.983V7.17507H249.595V9.13113ZM251.077 18.6528V7.17507H255.972C256.503 7.17507 256.991 7.28823 257.436 7.51455C257.891 7.73008 258.281 8.02107 258.607 8.3875C258.932 8.74315 259.187 9.15267 259.371 9.6161C259.556 10.0687 259.648 10.5268 259.648 10.9902C259.648 11.4752 259.561 11.9494 259.387 12.4128C259.214 12.8654 258.97 13.2696 258.656 13.6252C258.341 13.9809 257.962 14.2665 257.517 14.482C257.073 14.6975 256.585 14.8053 256.053 14.8053H253.321V18.6528H251.077ZM253.321 12.8493H255.923C256.335 12.8493 256.677 12.6822 256.948 12.3481C257.23 12.014 257.371 11.5614 257.371 10.9902C257.371 10.6992 257.328 10.4406 257.241 10.2142C257.154 9.97713 257.04 9.77776 256.899 9.6161C256.758 9.45445 256.59 9.33591 256.395 9.26046C256.211 9.17425 256.021 9.13113 255.826 9.13113H253.321V12.8493ZM265.164 7.17507H274.678V18.6528H272.45V9.13113H267.392V18.6528H265.164V7.17507ZM282.098 18.7336C281.253 18.7336 280.483 18.572 279.789 18.2486C279.106 17.9145 278.515 17.4781 278.016 16.9392C277.528 16.3896 277.149 15.7645 276.878 15.064C276.607 14.3635 276.471 13.6468 276.471 12.9139C276.471 12.1488 276.612 11.4159 276.894 10.7154C277.187 10.0149 277.583 9.39516 278.081 8.85631C278.591 8.31746 279.193 7.89174 279.886 7.57921C280.58 7.2559 281.334 7.09424 282.147 7.09424C282.982 7.09424 283.741 7.26668 284.424 7.61154C285.118 7.94565 285.709 8.3875 286.197 8.93714C286.685 9.48678 287.064 10.1119 287.335 10.8124C287.606 11.5129 287.742 12.2242 287.742 12.9463C287.742 13.7114 287.601 14.4443 287.319 15.1448C287.037 15.8346 286.647 16.4489 286.148 16.9877C285.649 17.5158 285.053 17.9415 284.359 18.2648C283.665 18.5773 282.911 18.7336 282.098 18.7336ZM278.748 12.9139C278.748 13.4097 278.824 13.8893 278.976 14.3527C279.128 14.8161 279.344 15.2256 279.626 15.5813C279.919 15.9369 280.271 16.2225 280.683 16.4381C281.106 16.6536 281.583 16.7614 282.115 16.7614C282.657 16.7614 283.134 16.6536 283.546 16.4381C283.969 16.2118 284.321 15.9154 284.603 15.549C284.896 15.1825 285.113 14.773 285.253 14.3204C285.405 13.8569 285.481 13.3881 285.481 12.9139C285.481 12.4182 285.4 11.9386 285.237 11.4752C285.085 11.0117 284.863 10.6022 284.57 10.2466C284.288 9.89092 283.936 9.61073 283.513 9.40595C283.101 9.19041 282.635 9.08263 282.115 9.08263C281.572 9.08263 281.09 9.19579 280.667 9.42211C280.244 9.63765 279.892 9.92863 279.61 10.2951C279.328 10.6507 279.111 11.0602 278.959 11.5237C278.819 11.9763 278.748 12.4397 278.748 12.9139ZM205.986 28.9989C205.986 28.2984 206.11 27.6086 206.36 26.9297C206.62 26.2399 206.994 25.6256 207.482 25.0868C207.97 24.5479 208.566 24.1115 209.271 23.7773C209.975 23.4432 210.778 23.2762 211.678 23.2762C212.74 23.2762 213.657 23.5079 214.426 23.9713C215.207 24.4348 215.787 25.0383 216.167 25.7819L214.443 26.962C214.291 26.6387 214.106 26.3693 213.89 26.1537C213.673 25.9274 213.44 25.7496 213.19 25.6202C212.941 25.4909 212.681 25.3993 212.41 25.3454C212.139 25.2808 211.873 25.2484 211.613 25.2484C211.049 25.2484 210.556 25.3616 210.133 25.5879C209.721 25.8142 209.374 26.1106 209.092 26.477C208.821 26.8327 208.615 27.2422 208.474 27.7056C208.333 28.1583 208.263 28.6109 208.263 29.0636C208.263 29.5701 208.344 30.0605 208.506 30.5347C208.669 30.9981 208.897 31.4077 209.19 31.7633C209.493 32.119 209.851 32.4047 210.263 32.6201C210.686 32.8355 211.146 32.9434 211.645 32.9434C211.906 32.9434 212.177 32.9111 212.458 32.8464C212.74 32.7818 213.006 32.6795 213.255 32.5393C213.516 32.3991 213.754 32.2212 213.971 32.0058C214.188 31.7795 214.361 31.5099 214.491 31.1975L216.329 32.2483C216.145 32.6795 215.879 33.0619 215.532 33.3961C215.196 33.7194 214.811 33.9942 214.378 34.2205C213.955 34.4468 213.499 34.6194 213.011 34.7378C212.524 34.8563 212.047 34.9156 211.58 34.9156C210.756 34.9156 210.003 34.7431 209.32 34.3983C208.637 34.0536 208.046 33.6062 207.547 33.0566C207.059 32.4961 206.674 31.8656 206.392 31.1652C206.121 30.4538 205.986 29.7317 205.986 28.9989ZM217.883 23.3409H227.397V34.8187H225.169V25.2969H220.111V34.8187H217.883V23.3409ZM232.15 31.3915L238.037 23.3409H239.745V34.8187H237.517V26.9458L231.711 34.8187H229.922V23.3409H232.15V31.3915ZM241.498 28.9989C241.498 28.2984 241.623 27.6086 241.872 26.9297C242.133 26.2399 242.507 25.6256 242.995 25.0868C243.482 24.5479 244.079 24.1115 244.784 23.7773C245.488 23.4432 246.291 23.2762 247.19 23.2762C248.253 23.2762 249.169 23.5079 249.939 23.9713C250.72 24.4348 251.3 25.0383 251.679 25.7819L249.955 26.962C249.804 26.6387 249.619 26.3693 249.402 26.1537C249.186 25.9274 248.952 25.7496 248.703 25.6202C248.454 25.4909 248.193 25.3993 247.922 25.3454C247.651 25.2808 247.386 25.2484 247.125 25.2484C246.562 25.2484 246.068 25.3616 245.645 25.5879C245.234 25.8142 244.886 26.1106 244.605 26.477C244.333 26.8327 244.128 27.2422 243.987 27.7056C243.846 28.1583 243.775 28.6109 243.775 29.0636C243.775 29.5701 243.856 30.0605 244.019 30.5347C244.182 30.9981 244.409 31.4077 244.702 31.7633C245.006 32.119 245.364 32.4047 245.776 32.6201C246.198 32.8355 246.659 32.9434 247.158 32.9434C247.418 32.9434 247.689 32.9111 247.971 32.8464C248.253 32.7818 248.519 32.6795 248.768 32.5393C249.028 32.3991 249.267 32.2212 249.484 32.0058C249.7 31.7795 249.874 31.5099 250.004 31.1975L251.842 32.2483C251.658 32.6795 251.392 33.0619 251.045 33.3961C250.709 33.7194 250.324 33.9942 249.89 34.2205C249.467 34.4468 249.012 34.6194 248.524 34.7378C248.036 34.8563 247.559 34.9156 247.093 34.9156C246.269 34.9156 245.515 34.7431 244.832 34.3983C244.149 34.0536 243.558 33.6062 243.06 33.0566C242.572 32.4961 242.187 31.8656 241.905 31.1652C241.634 30.4538 241.498 29.7317 241.498 28.9989ZM256.473 23.3409H258.458L262.849 34.8187H260.539L259.466 31.9573H255.433L254.375 34.8187H252.066L256.473 23.3409ZM259.059 30.3892L257.465 25.8789L255.807 30.3892H259.059ZM273.873 23.3409V34.8187H271.645V29.9203H266.408V34.8187H264.164V23.3409H266.408V27.9805H271.645V23.3409H273.873ZM278.605 31.3915L284.493 23.3409H286.2V34.8187H283.972V26.9458L278.166 34.8187H276.377V23.3409H278.605V31.3915ZM297.891 34.8995C297.186 34.8995 296.535 34.781 295.939 34.5438C295.343 34.2961 294.817 33.9566 294.361 33.5254C293.906 33.0942 293.532 32.5825 293.239 31.9896C292.957 31.3862 292.773 30.7233 292.686 30.0012H290.946V34.8187H288.718V23.3409H290.946V28.0451H292.703C292.8 27.323 293.001 26.671 293.304 26.0891C293.608 25.4963 293.987 24.9898 294.443 24.5695C294.909 24.1492 295.435 23.8258 296.02 23.5995C296.617 23.3732 297.256 23.26 297.939 23.26C298.742 23.26 299.468 23.4109 300.119 23.7127C300.78 24.0037 301.344 24.4132 301.81 24.9413C302.276 25.4694 302.634 26.0891 302.883 26.8004C303.144 27.5116 303.274 28.2822 303.274 29.1121C303.274 29.9958 303.138 30.7933 302.867 31.5047C302.596 32.216 302.222 32.825 301.745 33.3314C301.268 33.8273 300.699 34.2152 300.037 34.4953C299.387 34.7649 298.671 34.8995 297.891 34.8995ZM294.914 29.0797C294.914 30.2868 295.175 31.2298 295.695 31.9088C296.226 32.5878 296.969 32.9273 297.923 32.9273C298.422 32.9273 298.861 32.8355 299.24 32.6524C299.631 32.4693 299.956 32.2107 300.216 31.8765C300.476 31.5317 300.672 31.122 300.802 30.6478C300.943 30.1736 301.013 29.6509 301.013 29.0797C301.013 27.8727 300.737 26.9351 300.184 26.2669C299.631 25.5879 298.872 25.2484 297.907 25.2484C297.419 25.2484 296.991 25.34 296.622 25.5233C296.253 25.7065 295.939 25.9651 295.679 26.2992C295.43 26.6333 295.24 27.0375 295.11 27.5116C294.979 27.9751 294.914 28.4978 294.914 29.0797ZM205.758 49.0284H206.165C206.479 49.0175 206.755 48.9261 206.994 48.7536C207.233 48.581 207.444 48.2633 207.628 47.7998C207.812 47.3363 207.975 46.7005 208.116 45.8922C208.257 45.0731 208.387 44.0223 208.506 42.7399L208.799 39.5067H215.792V49.0284H217.5V53.8458H215.402V50.9845H207.872V53.8458H205.758V49.0284ZM213.548 49.0284V41.4628H210.832L210.67 43.2087C210.539 44.7068 210.355 45.9246 210.117 46.8622C209.889 47.7998 209.591 48.522 209.222 49.0284H213.548ZM223.858 51.0653C223.013 51.0653 222.243 50.9036 221.549 50.5803C220.866 50.2461 220.275 49.8096 219.776 49.2709C219.288 48.7212 218.909 48.0961 218.638 47.3956C218.367 46.6952 218.231 45.9783 218.231 45.2456C218.231 44.4805 218.372 43.7475 218.654 43.047C218.947 42.3466 219.343 41.7267 219.841 41.188C220.351 40.6492 220.953 40.2233 221.647 39.9109C222.34 39.5876 223.094 39.4259 223.907 39.4259C224.742 39.4259 225.501 39.5984 226.184 39.9432C226.878 40.2774 227.469 40.7192 227.957 41.2688C228.445 41.8184 228.824 42.4436 229.095 43.144C229.366 43.8445 229.502 44.5557 229.502 45.2779C229.502 46.043 229.361 46.7761 229.079 47.4765C228.797 48.1663 228.407 48.7806 227.908 49.3194C227.409 49.8476 226.813 50.2732 226.119 50.5965C225.425 50.9089 224.672 51.0653 223.858 51.0653ZM220.508 45.2456C220.508 45.7414 220.584 46.2208 220.736 46.6843C220.888 47.1479 221.104 47.5573 221.386 47.913C221.679 48.2686 222.031 48.5543 222.444 48.7697C222.866 48.9852 223.343 49.0931 223.875 49.0931C224.417 49.0931 224.894 48.9852 225.306 48.7697C225.729 48.5434 226.081 48.2472 226.363 47.8806C226.656 47.5141 226.873 47.1047 227.014 46.652C227.165 46.1885 227.241 45.7197 227.241 45.2456C227.241 44.7497 227.16 44.2704 226.997 43.8068C226.845 43.3433 226.623 42.9339 226.33 42.5782C226.048 42.2226 225.696 41.9425 225.273 41.7376C224.861 41.5222 224.395 41.4143 223.875 41.4143C223.332 41.4143 222.85 41.5275 222.427 41.7538C222.004 41.9692 221.652 42.2602 221.37 42.6267C221.088 42.9824 220.871 43.3918 220.72 43.8553C220.579 44.308 220.508 44.7715 220.508 45.2456ZM234.455 43.2087C234.335 44.6851 234.173 45.9246 233.967 46.9268C233.761 47.9291 233.479 48.7427 233.121 49.3679C232.763 49.9822 232.319 50.4239 231.787 50.6935C231.256 50.963 230.606 51.0976 229.836 51.0976L229.706 49.0931C230.074 49.0607 230.394 48.969 230.665 48.8182C230.947 48.6675 231.186 48.3709 231.381 47.9291C231.587 47.4874 231.76 46.8569 231.901 46.0377C232.042 45.208 232.172 44.1087 232.292 42.7399L232.568 39.5067H239.561V50.9845H237.333V41.4628H234.601L234.455 43.2087ZM249.13 41.4628H244.316V50.9845H242.088V39.5067H249.13V41.4628ZM254.718 51.0653C253.872 51.0653 253.102 50.9036 252.408 50.5803C251.725 50.2461 251.134 49.8096 250.635 49.2709C250.148 48.7212 249.768 48.0961 249.497 47.3956C249.226 46.6952 249.09 45.9783 249.09 45.2456C249.09 44.4805 249.231 43.7475 249.513 43.047C249.806 42.3466 250.202 41.7267 250.701 41.188C251.21 40.6492 251.812 40.2233 252.506 39.9109C253.199 39.5876 253.953 39.4259 254.766 39.4259C255.601 39.4259 256.36 39.5984 257.043 39.9432C257.737 40.2774 258.328 40.7192 258.816 41.2688C259.304 41.8184 259.683 42.4436 259.954 43.144C260.225 43.8445 260.361 44.5557 260.361 45.2779C260.361 46.043 260.22 46.7761 259.938 47.4765C259.656 48.1663 259.266 48.7806 258.767 49.3194C258.268 49.8476 257.672 50.2732 256.978 50.5965C256.284 50.9089 255.531 51.0653 254.718 51.0653ZM251.367 45.2456C251.367 45.7414 251.443 46.2208 251.595 46.6843C251.747 47.1479 251.963 47.5573 252.246 47.913C252.538 48.2686 252.89 48.5543 253.303 48.7697C253.726 48.9852 254.202 49.0931 254.734 49.0931C255.276 49.0931 255.753 48.9852 256.165 48.7697C256.588 48.5434 256.94 48.2472 257.222 47.8806C257.515 47.5141 257.732 47.1047 257.873 46.652C258.024 46.1885 258.1 45.7197 258.1 45.2456C258.1 44.7497 258.019 44.2704 257.856 43.8068C257.704 43.3433 257.482 42.9339 257.19 42.5782C256.908 42.2226 256.555 41.9425 256.133 41.7376C255.72 41.5222 255.254 41.4143 254.734 41.4143C254.192 41.4143 253.709 41.5275 253.286 41.7538C252.864 41.9692 252.511 42.2602 252.229 42.6267C251.947 42.9824 251.73 43.3918 251.579 43.8553C251.438 44.308 251.367 44.7715 251.367 45.2456ZM271.239 48.0261C271.239 48.5111 271.141 48.9367 270.946 49.3032C270.751 49.6697 270.48 49.9769 270.133 50.2247C269.797 50.4724 269.401 50.6611 268.946 50.7905C268.501 50.9198 268.024 50.9845 267.514 50.9845H261.936V39.5067H268.116C268.517 39.5067 268.88 39.5928 269.206 39.7654C269.531 39.9379 269.808 40.1642 270.035 40.4443C270.263 40.7139 270.436 41.0263 270.556 41.382C270.686 41.7267 270.751 42.0771 270.751 42.4327C270.751 42.9933 270.61 43.5211 270.328 44.017C270.046 44.502 269.634 44.8629 269.092 45.1001C269.753 45.2941 270.274 45.6445 270.653 46.1509C271.044 46.6467 271.239 47.2716 271.239 48.0261ZM268.978 47.6058C268.978 47.4009 268.94 47.2069 268.864 47.0238C268.799 46.8298 268.707 46.6629 268.588 46.5227C268.469 46.3825 268.328 46.2749 268.165 46.1994C268.002 46.1133 267.823 46.07 267.628 46.07H264.18V49.0931H267.514C267.72 49.0931 267.91 49.0554 268.084 48.9799C268.268 48.9044 268.425 48.8021 268.555 48.6727C268.685 48.5325 268.789 48.3709 268.864 48.1878C268.94 48.0047 268.978 47.8107 268.978 47.6058ZM264.18 41.4143V44.308H267.173C267.553 44.308 267.872 44.1786 268.132 43.92C268.404 43.6613 268.539 43.3057 268.539 42.8531C268.539 42.4113 268.414 42.0609 268.165 41.8023C267.927 41.5436 267.628 41.4143 267.27 41.4143H264.18Z" fill="#282828"/>
<path d="M182.963 0V60" stroke="#282828" stroke-width="10"/>
</g>
<defs>
<clipPath id="clip0_1_4">
<rect width="304" height="60" fill="white"/>
</clipPath>
</defs>
</svg>
