<svg width="254" height="50" viewBox="0 0 254 50" fill="none" xmlns="http://www.w3.org/2000/svg">
<g clip-path="url(#clip0_38_625)">
<path d="M46.6895 43.3886H0.130657V6.34717H9.59817V34.127H28.2745V6.34717H37.7446V34.127H41.667C42.4117 37.6995 44.1939 40.8938 46.6895 43.3886Z" fill="white" stroke="white" stroke-miterlimit="10"/>
<path d="M76.4848 37.9223C75.437 38.9689 74.261 39.8938 72.9858 40.6684C72.8943 40.7254 72.8003 40.7798 72.7062 40.8342C69.931 42.4586 66.6933 43.3886 63.2361 43.3886H63.2152C59.8964 43.386 56.7789 42.5233 54.0795 41.013C53.9724 40.8627 53.8679 40.7125 53.7686 40.5596V40.8368C52.543 40.1218 51.4062 39.2694 50.3819 38.3083C49.0805 37.0829 47.9569 35.6762 47.0527 34.127C45.4639 31.4042 44.5545 28.2409 44.5545 24.8679C44.5545 21.4948 45.4639 18.329 47.0553 15.6062C47.2618 15.2487 47.4839 14.899 47.7138 14.557C48.4011 13.5389 49.1903 12.5907 50.0657 11.7332C51.1711 10.6425 52.4149 9.68914 53.7659 8.89898C56.5385 7.27981 59.7684 6.34976 63.2152 6.34717H63.2361C66.6933 6.34717 69.931 7.27722 72.7062 8.90157C74.2166 9.7824 75.5911 10.8705 76.7932 12.1244L70.2132 18.6477C68.4833 16.7772 65.9982 15.6062 63.2361 15.6062H63.2152C60.6621 15.6114 58.3468 16.6218 56.6457 18.2539C54.9001 19.9327 53.8025 22.2746 53.7712 24.8679H53.7686V24.9922C53.7686 27.7306 54.9497 30.1943 56.8364 31.9093C58.0071 32.9741 59.447 33.7513 61.0436 34.127C61.7466 34.2928 62.4809 34.3808 63.2361 34.3808C63.9913 34.3808 64.7256 34.2928 65.4285 34.127C67.2133 33.7073 68.7995 32.7876 70.0329 31.5259L76.4848 37.9223Z" fill="white" stroke="white" stroke-miterlimit="10"/>
<mask id="mask0_38_625" style="mask-type:luminance" maskUnits="userSpaceOnUse" x="41" y="4" width="28" height="45">
<path d="M68.7263 4.14502H41.5494V48.4455H68.7263V4.14502Z" fill="white"/>
</mask>
<g mask="url(#mask0_38_625)">
<mask id="mask1_38_625" style="mask-type:alpha" maskUnits="userSpaceOnUse" x="41" y="5" width="24" height="39">
<path fill-rule="evenodd" clip-rule="evenodd" d="M62.8451 8.69536C50.4639 13.9358 46.5646 21.6894 51.1462 31.9564C45.1028 25.008 42.9981 14.0613 45.7304 5.31104C40.7466 12.4268 40.1641 23.0751 44.0536 30.8266C47.9428 38.5784 54.743 43.1196 63.5 43.5235C58.4994 41.6087 55.6547 38.1331 53.9146 33.1268C52.1745 28.1204 52.7612 22.6118 55.5183 18.0719C53.4471 22.6568 53.2619 27.5665 54.9617 32.8004C62.9437 27.8869 65.7408 22.6341 63.3529 17.0427C61.4317 13.2241 61.2626 10.4416 62.8451 8.69536Z" fill="#39B54A"/>
</mask>
<g mask="url(#mask1_38_625)">
<path d="M54.2635 48.4046C66.6585 48.4046 76.7067 38.4906 76.7067 26.2611C76.7067 14.0316 66.6585 4.11768 54.2635 4.11768C41.8685 4.11768 31.8206 14.0316 31.8206 26.2611C31.8206 38.4906 41.8685 48.4046 54.2635 48.4046Z" fill="#39B54A"/>
<path d="M77.3093 47.5071C89.7503 46.9084 99.3684 36.96 98.7914 25.2866C98.2144 13.6132 87.6611 4.63527 75.2198 5.23384C62.7785 5.83244 53.1607 15.7809 53.7377 27.4543C54.3147 39.1279 64.868 48.1056 77.3093 47.5071Z" fill="#88D893"/>
</g>
</g>
<path d="M124.651 34.127V6.34717H94.9286C95.0514 7.70209 95.1141 9.06997 95.1141 10.456C95.1141 12.1969 95.0148 13.9171 94.8188 15.6062C94.4556 18.8057 93.75 21.9068 92.7466 24.8679C91.6334 28.1373 90.1569 31.2409 88.3591 34.127H83.4698C82.7251 37.6995 80.9429 40.8938 78.4473 43.3886H134.121V34.127H124.651ZM98.6785 34.127C100.21 31.2125 101.43 28.1114 102.292 24.8679C103.087 21.8912 103.581 18.7902 103.74 15.6062H115.863V34.127H98.6785Z" fill="white" stroke="white" stroke-miterlimit="10"/>
<path d="M127.784 0.777344L125.045 7.44302L124.178 9.55809L122.104 14.6034L119.164 21.7618H108.447L108.934 20.5741L111.386 14.6034L112.699 11.4068L114.327 7.44302L117.064 0.777344H127.784Z" fill="#0071BC"/>
<path d="M179.906 15.5442H172.745V5.97947H174.607V13.9142H178.371V5.97947H180.232V13.9142H181.673V17.9287H179.906V15.5442ZM189.662 13.9142V15.5442H182.963V5.97947H189.539V7.60952H184.838V9.91315H188.901V11.422H184.838V13.9142H189.662ZM199.276 5.97947V15.5442H197.414V11.4624H193.039V15.5442H191.163V5.97947H193.039V9.84579H197.414V5.97947H199.276ZM208.543 7.60952H205.458V15.5442H203.597V7.60952H200.512V5.97947H208.543V7.60952ZM209.781 15.5442V5.97947H213.871C214.315 5.97947 214.723 6.07377 215.094 6.26237C215.475 6.44198 215.801 6.68447 216.073 6.98983C216.345 7.2862 216.557 7.62747 216.711 8.01366C216.866 8.39087 216.942 8.77255 216.942 9.15874C216.942 9.56289 216.87 9.95804 216.725 10.3442C216.58 10.7214 216.376 11.0582 216.114 11.3546C215.851 11.651 215.534 11.889 215.162 12.0686C214.791 12.2482 214.383 12.338 213.939 12.338H211.656V15.5442H209.781ZM211.656 10.708H213.831C214.175 10.708 214.46 10.5688 214.687 10.2903C214.922 10.0119 215.04 9.63473 215.04 9.15874C215.04 8.91625 215.004 8.70071 214.931 8.51211C214.859 8.31452 214.764 8.14838 214.646 8.01366C214.528 7.87895 214.388 7.78017 214.225 7.71729C214.071 7.64545 213.912 7.60952 213.749 7.60952H211.656V10.708ZM221.552 5.97947H229.501V15.5442H227.639V7.60952H223.413V15.5442H221.552V5.97947ZM235.7 15.6116C234.994 15.6116 234.351 15.4769 233.771 15.2074C233.2 14.929 232.707 14.5653 232.29 14.1163C231.882 13.6582 231.565 13.1373 231.339 12.5536C231.112 11.9698 230.999 11.3725 230.999 10.7618C230.999 10.1242 231.117 9.51348 231.352 8.92973C231.597 8.34597 231.928 7.82954 232.344 7.3805C232.77 6.93146 233.273 6.5767 233.852 6.31625C234.432 6.04682 235.062 5.91211 235.741 5.91211C236.439 5.91211 237.073 6.05581 237.644 6.3432C238.224 6.62162 238.717 6.98983 239.125 7.44786C239.532 7.90589 239.85 8.4268 240.076 9.01056C240.303 9.59431 240.416 10.1871 240.416 10.7888C240.416 11.4264 240.298 12.0372 240.062 12.6209C239.827 13.1957 239.501 13.7076 239.084 14.1567C238.667 14.5967 238.169 14.9515 237.589 15.2209C237.01 15.4814 236.38 15.6116 235.7 15.6116ZM232.901 10.7618C232.901 11.175 232.965 11.5746 233.092 11.9608C233.219 12.347 233.4 12.6883 233.635 12.9846C233.88 13.281 234.174 13.519 234.518 13.6986C234.872 13.8782 235.27 13.9681 235.714 13.9681C236.167 13.9681 236.566 13.8782 236.91 13.6986C237.263 13.51 237.558 13.2631 237.793 12.9577C238.038 12.6523 238.219 12.3111 238.337 11.9339C238.464 11.5477 238.527 11.157 238.527 10.7618C238.527 10.3487 238.459 9.94908 238.323 9.56289C238.196 9.1767 238.011 8.83543 237.766 8.53905C237.53 8.24268 237.236 8.00918 236.883 7.83853C236.539 7.65892 236.149 7.5691 235.714 7.5691C235.261 7.5691 234.858 7.6634 234.505 7.85201C234.151 8.03162 233.857 8.2741 233.621 8.57947C233.386 8.87584 233.205 9.21711 233.078 9.6033C232.96 9.9805 232.901 10.3667 232.901 10.7618ZM172.106 24.166C172.106 23.5822 172.211 23.0074 172.419 22.4416C172.636 21.8669 172.949 21.3549 173.357 20.9059C173.764 20.4569 174.263 20.0931 174.851 19.8147C175.44 19.5363 176.111 19.3971 176.862 19.3971C177.75 19.3971 178.516 19.5902 179.159 19.9764C179.811 20.3626 180.296 20.8655 180.613 21.4852L179.172 22.4686C179.046 22.1992 178.892 21.9746 178.71 21.795C178.529 21.6064 178.334 21.4582 178.126 21.3505C177.918 21.2427 177.7 21.1663 177.474 21.1214C177.247 21.0675 177.025 21.0406 176.808 21.0406C176.337 21.0406 175.925 21.1349 175.571 21.3235C175.227 21.5121 174.937 21.7591 174.702 22.0644C174.475 22.3608 174.303 22.7021 174.185 23.0883C174.068 23.4655 174.009 23.8427 174.009 24.2199C174.009 24.642 174.077 25.0506 174.213 25.4458C174.349 25.832 174.539 26.1733 174.783 26.4697C175.037 26.766 175.336 27.0041 175.68 27.1837C176.034 27.3632 176.418 27.4531 176.835 27.4531C177.053 27.4531 177.279 27.4261 177.515 27.3723C177.75 27.3184 177.972 27.2331 178.18 27.1163C178.398 26.9995 178.597 26.8513 178.778 26.6717C178.959 26.4831 179.104 26.2585 179.213 25.9982L180.749 26.8738C180.595 27.2331 180.373 27.5518 180.083 27.8303C179.802 28.0997 179.481 28.3287 179.118 28.5173C178.765 28.7059 178.384 28.8497 177.977 28.9484C177.569 29.0471 177.17 29.0966 176.781 29.0966C176.092 29.0966 175.463 28.9528 174.892 28.6655C174.321 28.3782 173.828 28.0054 173.411 27.5474C173.003 27.0803 172.682 26.5549 172.446 25.9712C172.22 25.3784 172.106 24.7767 172.106 24.166ZM182.047 19.451H189.996V29.0158H188.135V21.081H183.909V29.0158H182.047V19.451ZM193.967 26.1598L198.886 19.451H200.313V29.0158H198.452V22.4551L193.601 29.0158H192.106V19.451H193.967V26.1598ZM201.778 24.166C201.778 23.5822 201.882 23.0074 202.091 22.4416C202.308 21.8669 202.621 21.3549 203.028 20.9059C203.436 20.4569 203.934 20.0931 204.523 19.8147C205.112 19.5363 205.782 19.3971 206.534 19.3971C207.422 19.3971 208.187 19.5902 208.831 19.9764C209.483 20.3626 209.968 20.8655 210.285 21.4852L208.844 22.4686C208.717 22.1992 208.563 21.9746 208.382 21.795C208.201 21.6064 208.006 21.4582 207.798 21.3505C207.59 21.2427 207.372 21.1663 207.146 21.1214C206.919 21.0675 206.697 21.0406 206.48 21.0406C206.009 21.0406 205.597 21.1349 205.243 21.3235C204.899 21.5121 204.609 21.7591 204.374 22.0644C204.147 22.3608 203.975 22.7021 203.857 23.0883C203.739 23.4655 203.681 23.8427 203.681 24.2199C203.681 24.642 203.749 25.0506 203.884 25.4458C204.02 25.832 204.211 26.1733 204.455 26.4697C204.709 26.766 205.008 27.0041 205.352 27.1837C205.705 27.3632 206.09 27.4531 206.507 27.4531C206.724 27.4531 206.951 27.4261 207.186 27.3723C207.422 27.3184 207.644 27.2331 207.852 27.1163C208.07 26.9995 208.269 26.8513 208.45 26.6717C208.631 26.4831 208.776 26.2585 208.885 25.9982L210.42 26.8738C210.267 27.2331 210.044 27.5518 209.755 27.8303C209.474 28.0997 209.152 28.3287 208.79 28.5173C208.437 28.7059 208.056 28.8497 207.648 28.9484C207.241 29.0471 206.842 29.0966 206.453 29.0966C205.764 29.0966 205.135 28.9528 204.564 28.6655C203.993 28.3782 203.499 28.0054 203.083 27.5474C202.675 27.0803 202.353 26.5549 202.118 25.9712C201.891 25.3784 201.778 24.7767 201.778 24.166ZM214.29 19.451H215.948L219.617 29.0158H217.687L216.791 26.6313H213.421L212.537 29.0158H210.608L214.29 19.451ZM216.451 25.3245L215.119 21.566L213.733 25.3245H216.451ZM228.828 19.451V29.0158H226.967V24.9339H222.591V29.0158H220.716V19.451H222.591V23.3173H226.967V19.451H228.828ZM232.782 26.1598L237.701 19.451H239.128V29.0158H237.266V22.4551L232.415 29.0158H230.92V19.451H232.782V26.1598ZM248.895 29.0831C248.307 29.0831 247.763 28.9844 247.265 28.7868C246.766 28.5803 246.327 28.2974 245.947 27.9381C245.566 27.5787 245.254 27.1523 245.009 26.6583C244.774 26.1554 244.62 25.603 244.547 25.0012H243.093V29.0158H241.232V19.451H243.093V23.3712H244.561C244.642 22.7694 244.81 22.2261 245.063 21.7411C245.317 21.2472 245.634 20.8251 246.015 20.4748C246.404 20.1245 246.844 19.8551 247.333 19.6665C247.831 19.4779 248.365 19.3836 248.936 19.3836C249.606 19.3836 250.214 19.5093 250.757 19.7608C251.31 20.0033 251.781 20.3446 252.17 20.7846C252.56 21.2247 252.859 21.7411 253.067 22.3339C253.285 22.9266 253.393 23.5688 253.393 24.2603C253.393 24.9967 253.28 25.6613 253.054 26.2541C252.827 26.8469 252.514 27.3544 252.116 27.7764C251.717 28.1896 251.242 28.5129 250.689 28.7464C250.146 28.971 249.548 29.0831 248.895 29.0831ZM246.409 24.2334C246.409 25.2392 246.626 26.0251 247.061 26.5909C247.505 27.1567 248.125 27.4396 248.923 27.4396C249.339 27.4396 249.706 27.3632 250.023 27.2106C250.349 27.058 250.621 26.8425 250.839 26.564C251.056 26.2767 251.219 25.9352 251.328 25.5401C251.446 25.1449 251.504 24.7093 251.504 24.2334C251.504 23.2275 251.273 22.4461 250.811 21.8893C250.349 21.3235 249.715 21.0406 248.909 21.0406C248.501 21.0406 248.144 21.117 247.836 21.2696C247.527 21.4223 247.265 21.6378 247.047 21.9163C246.839 22.1947 246.681 22.5315 246.572 22.9266C246.463 23.3128 246.409 23.7484 246.409 24.2334ZM171.916 40.8572H172.256C172.519 40.8482 172.75 40.772 172.949 40.6282C173.148 40.4844 173.325 40.2197 173.479 39.8334C173.633 39.4471 173.769 38.9173 173.887 38.2438C174.004 37.5611 174.113 36.6855 174.213 35.6168L174.457 32.9225H180.3V40.8572H181.727V44.8717H179.974V42.4873H173.683V44.8717H171.916V40.8572ZM178.425 40.8572V34.5526H176.156L176.02 36.0075C175.911 37.2559 175.757 38.2707 175.558 39.0521C175.368 39.8334 175.119 40.4352 174.811 40.8572H178.425ZM187.04 42.5546C186.333 42.5546 185.69 42.4199 185.11 42.1505C184.539 41.872 184.045 41.5083 183.629 41.0593C183.221 40.6013 182.904 40.0803 182.678 39.4966C182.451 38.9129 182.338 38.3155 182.338 37.7049C182.338 37.0673 182.456 36.4565 182.691 35.8728C182.936 35.2891 183.266 34.7725 183.683 34.3236C184.109 33.8746 184.612 33.5197 185.192 33.2593C185.771 32.9899 186.401 32.8552 187.08 32.8552C187.778 32.8552 188.412 32.9989 188.983 33.2863C189.562 33.5648 190.056 33.9329 190.464 34.3909C190.872 34.8489 191.189 35.3699 191.415 35.9536C191.641 36.5373 191.755 37.13 191.755 37.7318C191.755 38.3694 191.637 38.9803 191.402 39.564C191.166 40.1388 190.84 40.6508 190.423 41.0997C190.006 41.5399 189.508 41.8945 188.928 42.164C188.349 42.4243 187.719 42.5546 187.04 42.5546ZM184.24 37.7049C184.24 38.1181 184.304 38.5176 184.431 38.9039C184.557 39.2901 184.738 39.6313 184.974 39.9277C185.219 40.2241 185.513 40.4622 185.857 40.6417C186.211 40.8212 186.609 40.9111 187.053 40.9111C187.506 40.9111 187.905 40.8212 188.249 40.6417C188.602 40.4531 188.897 40.2062 189.132 39.9008C189.377 39.5953 189.558 39.2541 189.676 38.8769C189.803 38.4907 189.866 38.1 189.866 37.7049C189.866 37.2917 189.798 36.8922 189.662 36.5059C189.535 36.1197 189.35 35.7785 189.105 35.4821C188.869 35.1857 188.575 34.9523 188.222 34.7816C187.877 34.6021 187.488 34.5122 187.053 34.5122C186.6 34.5122 186.197 34.6065 185.844 34.7951C185.491 34.9746 185.196 35.2171 184.961 35.5225C184.725 35.8189 184.544 36.1601 184.417 36.5464C184.299 36.9236 184.24 37.3098 184.24 37.7049ZM195.893 36.0075C195.793 37.2378 195.657 38.2707 195.485 39.1059C195.313 39.9412 195.078 40.6192 194.779 41.1401C194.48 41.6521 194.108 42.0202 193.665 42.2448C193.221 42.4694 192.677 42.5816 192.034 42.5816L191.925 40.9111C192.233 40.8842 192.5 40.8078 192.727 40.6821C192.962 40.5565 193.162 40.3093 193.325 39.9412C193.497 39.573 193.642 39.0477 193.76 38.365C193.877 37.6736 193.986 36.7575 194.086 35.6168L194.317 32.9225H200.16V42.4873H198.298V34.5526H196.015L195.893 36.0075ZM208.154 34.5526H204.132V42.4873H202.271V32.9225H208.154V34.5526ZM212.823 42.5546C212.117 42.5546 211.473 42.4199 210.894 42.1505C210.323 41.872 209.829 41.5083 209.413 41.0593C209.005 40.6013 208.688 40.0803 208.461 39.4966C208.235 38.9129 208.122 38.3155 208.122 37.7049C208.122 37.0673 208.239 36.4565 208.475 35.8728C208.72 35.2891 209.05 34.7725 209.467 34.3236C209.893 33.8746 210.395 33.5197 210.975 33.2593C211.555 32.9899 212.185 32.8552 212.864 32.8552C213.561 32.8552 214.196 32.9989 214.766 33.2863C215.346 33.5648 215.84 33.9329 216.248 34.3909C216.655 34.8489 216.972 35.3699 217.199 35.9536C217.425 36.5373 217.538 37.13 217.538 37.7318C217.538 38.3694 217.421 38.9803 217.185 39.564C216.949 40.1388 216.623 40.6508 216.207 41.0997C215.79 41.5399 215.292 41.8945 214.712 42.164C214.132 42.4243 213.503 42.5546 212.823 42.5546ZM210.024 37.7049C210.024 38.1181 210.087 38.5176 210.214 38.9039C210.341 39.2901 210.522 39.6313 210.758 39.9277C211.002 40.2241 211.297 40.4622 211.641 40.6417C211.994 40.8212 212.393 40.9111 212.837 40.9111C213.29 40.9111 213.688 40.8212 214.033 40.6417C214.386 40.4531 214.68 40.2062 214.916 39.9008C215.16 39.5953 215.342 39.2541 215.459 38.8769C215.586 38.4907 215.65 38.1 215.65 37.7049C215.65 37.2917 215.582 36.8922 215.446 36.5059C215.319 36.1197 215.133 35.7785 214.889 35.4821C214.653 35.1857 214.359 34.9523 214.005 34.7816C213.661 34.6021 213.272 34.5122 212.837 34.5122C212.384 34.5122 211.981 34.6065 211.627 34.7951C211.274 34.9746 210.98 35.2171 210.744 35.5225C210.509 35.8189 210.327 36.1601 210.201 36.5464C210.083 36.9236 210.024 37.3098 210.024 37.7049ZM226.627 40.022C226.627 40.4262 226.546 40.7808 226.382 41.0863C226.219 41.3917 225.993 41.6477 225.703 41.8541C225.422 42.0606 225.092 42.2179 224.711 42.3256C224.34 42.4334 223.941 42.4873 223.515 42.4873H218.854V32.9225H224.018C224.353 32.9225 224.657 32.9943 224.928 33.1381C225.2 33.2819 225.431 33.4704 225.622 33.7039C225.812 33.9285 225.957 34.1888 226.056 34.4852C226.165 34.7725 226.219 35.0645 226.219 35.3609C226.219 35.828 226.102 36.2679 225.866 36.6811C225.631 37.0852 225.286 37.386 224.833 37.5837C225.386 37.7453 225.821 38.0373 226.138 38.4593C226.464 38.8725 226.627 39.3932 226.627 40.022ZM224.738 39.6717C224.738 39.501 224.707 39.3394 224.643 39.1868C224.589 39.0251 224.512 38.886 224.412 38.7692C224.313 38.6523 224.195 38.5627 224.059 38.4997C223.923 38.428 223.773 38.392 223.61 38.392H220.73V40.9111H223.515C223.688 40.9111 223.846 40.8798 223.991 40.8168C224.145 40.7539 224.276 40.6686 224.385 40.5609C224.494 40.444 224.58 40.3093 224.643 40.1567C224.707 40.0041 224.738 39.8425 224.738 39.6717ZM220.73 34.5122V36.9236H223.23C223.547 36.9236 223.814 36.8158 224.032 36.6002C224.258 36.3847 224.371 36.0883 224.371 35.7111C224.371 35.343 224.267 35.051 224.059 34.8355C223.86 34.6199 223.61 34.5122 223.311 34.5122H220.73Z" fill="white"/>
<path d="M152.87 0V50" stroke="white" stroke-width="10"/>
</g>
<defs>
<clipPath id="clip0_38_625">
<rect width="254" height="50" fill="white"/>
</clipPath>
</defs>
</svg>
