<svg width="32" height="32" viewBox="0 0 32 32" fill="none" xmlns="http://www.w3.org/2000/svg">
<g clip-path="url(#clip0_36_81)">
<path d="M0.682888 15.8085C0.682138 18.4971 1.39014 21.1224 2.73639 23.4363L0.554138 31.3423L8.70814 29.2208C10.9634 30.4391 13.4903 31.0774 16.0581 31.0776H16.0649C24.5418 31.0776 31.4421 24.2332 31.4458 15.8205C31.4474 11.744 29.8489 7.9107 26.9446 5.02673C24.0409 2.14301 20.179 0.554046 16.0643 0.552185C7.58639 0.552185 0.686513 7.39622 0.683013 15.8085" fill="url(#paint0_linear_36_81)"/>
<path d="M12.0848 9.19665C11.7865 8.53891 11.4726 8.52564 11.189 8.51411C10.9568 8.50419 10.6913 8.50493 10.426 8.50493C10.1605 8.50493 9.72913 8.60403 9.36451 8.99907C8.99951 9.39448 7.97101 10.35 7.97101 12.2935C7.97101 14.2369 9.39763 16.1152 9.59651 16.379C9.79563 16.6424 12.3506 20.7582 16.3971 22.3416C19.7601 23.6574 20.4445 23.3957 21.1744 23.3297C21.9044 23.264 23.5299 22.3744 23.8615 21.452C24.1934 20.5297 24.1934 19.7392 24.0939 19.574C23.9944 19.4094 23.7289 19.3105 23.3308 19.1131C22.9326 18.9156 20.9753 17.9598 20.6104 17.828C20.2454 17.6962 19.98 17.6305 19.7145 18.026C19.449 18.421 18.6866 19.3105 18.4543 19.574C18.2221 19.838 17.9898 19.8709 17.5918 19.6733C17.1934 19.4751 15.9113 19.0585 14.3901 17.7129C13.2066 16.6658 12.4076 15.3728 12.1754 14.9772C11.9431 14.5823 12.1505 14.3682 12.3501 14.1714C12.529 13.9944 12.7484 13.7101 12.9476 13.4796C13.1461 13.2489 13.2124 13.0843 13.3451 12.8208C13.478 12.5571 13.4115 12.3264 13.3121 12.1289C13.2124 11.9313 12.4388 9.97767 12.0848 9.19665Z" fill="white"/>
</g>
<defs>
<linearGradient id="paint0_linear_36_81" x1="1545.14" y1="3079.56" x2="1545.14" y2="0.552185" gradientUnits="userSpaceOnUse">
<stop stop-color="#1FAF38"/>
<stop offset="1" stop-color="#60D669"/>
</linearGradient>
<clipPath id="clip0_36_81">
<rect width="32" height="32" fill="white"/>
</clipPath>
</defs>
</svg>
