<svg width="85" height="15" viewBox="0 0 85 15" fill="none" xmlns="http://www.w3.org/2000/svg">
<path d="M1.00136e-05 11.36V0H1.79201V4.752H3.12001L6.68801 0H8.73601L4.56001 5.504L9.04001 11.36H6.84801L3.12001 6.4H1.79201V11.36H1.00136e-05ZM15.2151 11.52C14.5431 11.52 13.9511 11.36 13.4391 11.04C12.9271 10.72 12.5218 10.304 12.2231 9.792V14.768H10.4631V2.992H12.0151V4.496C12.3351 3.99467 12.7511 3.59467 13.2631 3.296C13.7751 2.99733 14.3458 2.848 14.9751 2.848C15.5511 2.848 16.0791 2.96533 16.5591 3.2C17.0391 3.424 17.4551 3.73867 17.8071 4.144C18.1591 4.54933 18.4311 5.01333 18.6231 5.536C18.8258 6.048 18.9271 6.592 18.9271 7.168C18.9271 7.968 18.7671 8.69867 18.4471 9.36C18.1378 10.0213 17.7005 10.5493 17.1351 10.944C16.5805 11.328 15.9405 11.52 15.2151 11.52ZM14.6391 10.016C15.0125 10.016 15.3485 9.936 15.6471 9.776C15.9565 9.616 16.2178 9.40267 16.4311 9.136C16.6551 8.86933 16.8258 8.56533 16.9431 8.224C17.0605 7.88267 17.1191 7.53067 17.1191 7.168C17.1191 6.784 17.0551 6.42133 16.9271 6.08C16.7991 5.73867 16.6125 5.44 16.3671 5.184C16.1325 4.928 15.8551 4.72533 15.5351 4.576C15.2258 4.42667 14.8845 4.352 14.5111 4.352C14.2871 4.352 14.0525 4.39467 13.8071 4.48C13.5618 4.56533 13.3325 4.68267 13.1191 4.832C12.9058 4.98133 12.7191 5.15733 12.5591 5.36C12.3991 5.56267 12.2871 5.776 12.2231 6V8.192C12.3725 8.53333 12.5698 8.84267 12.8151 9.12C13.0605 9.38667 13.3431 9.60533 13.6631 9.776C13.9831 9.936 14.3085 10.016 14.6391 10.016ZM19.902 8.912C19.902 8.37867 20.0513 7.91467 20.35 7.52C20.6593 7.11467 21.0807 6.80533 21.614 6.592C22.1473 6.368 22.766 6.256 23.47 6.256C23.8433 6.256 24.222 6.28267 24.606 6.336C25.0007 6.38933 25.3473 6.47467 25.646 6.592V6.064C25.646 5.47733 25.47 5.01867 25.118 4.688C24.766 4.35733 24.2593 4.192 23.598 4.192C23.1287 4.192 22.686 4.27733 22.27 4.448C21.854 4.608 21.4113 4.83733 20.942 5.136L20.35 3.952C20.9047 3.57867 21.4593 3.30133 22.014 3.12C22.5793 2.93867 23.1713 2.848 23.79 2.848C24.91 2.848 25.79 3.14667 26.43 3.744C27.0807 4.33067 27.406 5.168 27.406 6.256V9.376C27.406 9.57867 27.438 9.72267 27.502 9.808C27.5767 9.89333 27.6993 9.94133 27.87 9.952V11.36C27.71 11.392 27.566 11.4133 27.438 11.424C27.31 11.4347 27.2033 11.44 27.118 11.44C26.7447 11.44 26.462 11.3493 26.27 11.168C26.078 10.9867 25.966 10.7733 25.934 10.528L25.886 10.048C25.5233 10.5173 25.0593 10.88 24.494 11.136C23.9287 11.392 23.358 11.52 22.782 11.52C22.2273 11.52 21.7313 11.408 21.294 11.184C20.8567 10.9493 20.5153 10.6347 20.27 10.24C20.0247 9.84533 19.902 9.40267 19.902 8.912ZM25.23 9.424C25.358 9.28533 25.4593 9.14667 25.534 9.008C25.6087 8.86933 25.646 8.74667 25.646 8.64V7.68C25.3473 7.56267 25.0327 7.47733 24.702 7.424C24.3713 7.36 24.046 7.328 23.726 7.328C23.086 7.328 22.5633 7.456 22.158 7.712C21.7633 7.968 21.566 8.32 21.566 8.768C21.566 9.01333 21.63 9.248 21.758 9.472C21.8967 9.696 22.0887 9.87733 22.334 10.016C22.59 10.1547 22.9047 10.224 23.278 10.224C23.662 10.224 24.03 10.1493 24.382 10C24.734 9.85067 25.0167 9.65867 25.23 9.424ZM33.3333 11.52C32.6826 11.52 32.0906 11.408 31.5573 11.184C31.0346 10.9493 30.5813 10.6293 30.1973 10.224C29.8133 9.81867 29.5146 9.35467 29.3013 8.832C29.0986 8.30933 28.9973 7.75467 28.9973 7.168C28.9973 6.37867 29.1733 5.65867 29.5253 5.008C29.8879 4.35733 30.3893 3.83467 31.0293 3.44C31.6799 3.04533 32.4479 2.848 33.3333 2.848C34.1866 2.848 34.9279 3.04 35.5573 3.424C36.1973 3.79733 36.6666 4.29867 36.9653 4.928L35.2533 5.472C35.0613 5.12 34.7893 4.848 34.4373 4.656C34.0959 4.45333 33.7173 4.352 33.3013 4.352C32.8319 4.352 32.4053 4.47467 32.0213 4.72C31.6479 4.95467 31.3493 5.28533 31.1253 5.712C30.9119 6.128 30.8053 6.61333 30.8053 7.168C30.8053 7.70133 30.9173 8.18667 31.1413 8.624C31.3653 9.05067 31.6639 9.392 32.0373 9.648C32.4213 9.89333 32.8479 10.016 33.3173 10.016C33.6053 10.016 33.8826 9.968 34.1493 9.872C34.4266 9.76533 34.6666 9.62667 34.8693 9.456C35.0719 9.27467 35.2159 9.07733 35.3013 8.864L37.0293 9.376C36.8479 9.792 36.5759 10.16 36.2133 10.48C35.8613 10.8 35.4399 11.056 34.9493 11.248C34.4693 11.4293 33.9306 11.52 33.3333 11.52ZM38.4788 11.36V2.992H40.2388V6.32H44.1268V2.992H45.8868V11.36H44.1268V7.84H40.2388V11.36H38.4788ZM51.77 11.52C51.1087 11.52 50.5167 11.408 49.994 11.184C49.4713 10.9493 49.018 10.6293 48.634 10.224C48.2607 9.81867 47.9727 9.36 47.77 8.848C47.5673 8.32533 47.466 7.77067 47.466 7.184C47.466 6.59733 47.5673 6.04267 47.77 5.52C47.9727 4.99733 48.2607 4.53867 48.634 4.144C49.018 3.73867 49.4713 3.424 49.994 3.2C50.5273 2.96533 51.1193 2.848 51.77 2.848C52.4207 2.848 53.0073 2.96533 53.53 3.2C54.0633 3.424 54.5167 3.73867 54.89 4.144C55.274 4.53867 55.5673 4.99733 55.77 5.52C55.9727 6.04267 56.074 6.59733 56.074 7.184C56.074 7.77067 55.9727 8.32533 55.77 8.848C55.5673 9.36 55.274 9.81867 54.89 10.224C54.5167 10.6293 54.0633 10.9493 53.53 11.184C53.0073 11.408 52.4207 11.52 51.77 11.52ZM49.274 7.2C49.274 7.73333 49.386 8.21333 49.61 8.64C49.834 9.06667 50.1327 9.40267 50.506 9.648C50.8793 9.89333 51.3007 10.016 51.77 10.016C52.2287 10.016 52.6447 9.89333 53.018 9.648C53.402 9.392 53.706 9.05067 53.93 8.624C54.154 8.18667 54.266 7.70667 54.266 7.184C54.266 6.65067 54.154 6.17067 53.93 5.744C53.706 5.31733 53.402 4.98133 53.018 4.736C52.6447 4.48 52.2287 4.352 51.77 4.352C51.3007 4.352 50.8793 4.48 50.506 4.736C50.1327 4.992 49.834 5.33333 49.61 5.76C49.386 6.176 49.274 6.656 49.274 7.2ZM56.835 13.36V9.808H57.027C57.251 9.808 57.459 9.744 57.651 9.616C57.843 9.488 58.0137 9.26933 58.163 8.96C58.3123 8.64 58.435 8.20267 58.531 7.648C58.627 7.08267 58.6857 6.37333 58.707 5.52L58.803 2.992H64.771V9.808H65.923V13.36H64.371V11.36H58.371V13.36H56.835ZM59.347 9.808H63.011V4.512H60.355L60.307 5.68C60.275 6.49067 60.2163 7.17333 60.131 7.728C60.0563 8.28267 59.9497 8.72533 59.811 9.056C59.683 9.38667 59.5283 9.63733 59.347 9.808ZM66.8083 8.912C66.8083 8.37867 66.9576 7.91467 67.2563 7.52C67.5656 7.11467 67.9869 6.80533 68.5203 6.592C69.0536 6.368 69.6723 6.256 70.3763 6.256C70.7496 6.256 71.1283 6.28267 71.5123 6.336C71.9069 6.38933 72.2536 6.47467 72.5523 6.592V6.064C72.5523 5.47733 72.3763 5.01867 72.0243 4.688C71.6723 4.35733 71.1656 4.192 70.5043 4.192C70.0349 4.192 69.5923 4.27733 69.1763 4.448C68.7603 4.608 68.3176 4.83733 67.8483 5.136L67.2563 3.952C67.8109 3.57867 68.3656 3.30133 68.9203 3.12C69.4856 2.93867 70.0776 2.848 70.6963 2.848C71.8163 2.848 72.6963 3.14667 73.3363 3.744C73.9869 4.33067 74.3123 5.168 74.3123 6.256V9.376C74.3123 9.57867 74.3443 9.72267 74.4083 9.808C74.4829 9.89333 74.6056 9.94133 74.7763 9.952V11.36C74.6163 11.392 74.4723 11.4133 74.3443 11.424C74.2163 11.4347 74.1096 11.44 74.0243 11.44C73.6509 11.44 73.3683 11.3493 73.1763 11.168C72.9843 10.9867 72.8723 10.7733 72.8403 10.528L72.7923 10.048C72.4296 10.5173 71.9656 10.88 71.4003 11.136C70.8349 11.392 70.2643 11.52 69.6883 11.52C69.1336 11.52 68.6376 11.408 68.2003 11.184C67.7629 10.9493 67.4216 10.6347 67.1763 10.24C66.9309 9.84533 66.8083 9.40267 66.8083 8.912ZM72.1363 9.424C72.2643 9.28533 72.3656 9.14667 72.4403 9.008C72.5149 8.86933 72.5523 8.74667 72.5523 8.64V7.68C72.2536 7.56267 71.9389 7.47733 71.6083 7.424C71.2776 7.36 70.9523 7.328 70.6323 7.328C69.9923 7.328 69.4696 7.456 69.0643 7.712C68.6696 7.968 68.4723 8.32 68.4723 8.768C68.4723 9.01333 68.5363 9.248 68.6643 9.472C68.8029 9.696 68.9949 9.87733 69.2403 10.016C69.4963 10.1547 69.8109 10.224 70.1843 10.224C70.5683 10.224 70.9363 10.1493 71.2883 10C71.6403 9.85067 71.9229 9.65867 72.1363 9.424ZM81.1995 11.52C80.5275 11.52 79.9355 11.36 79.4235 11.04C78.9115 10.72 78.5062 10.304 78.2075 9.792V14.768H76.4475V2.992H77.9995V4.496C78.3195 3.99467 78.7355 3.59467 79.2475 3.296C79.7595 2.99733 80.3302 2.848 80.9595 2.848C81.5355 2.848 82.0635 2.96533 82.5435 3.2C83.0235 3.424 83.4395 3.73867 83.7915 4.144C84.1435 4.54933 84.4155 5.01333 84.6075 5.536C84.8102 6.048 84.9115 6.592 84.9115 7.168C84.9115 7.968 84.7515 8.69867 84.4315 9.36C84.1222 10.0213 83.6848 10.5493 83.1195 10.944C82.5648 11.328 81.9248 11.52 81.1995 11.52ZM80.6235 10.016C80.9968 10.016 81.3328 9.936 81.6315 9.776C81.9408 9.616 82.2022 9.40267 82.4155 9.136C82.6395 8.86933 82.8102 8.56533 82.9275 8.224C83.0448 7.88267 83.1035 7.53067 83.1035 7.168C83.1035 6.784 83.0395 6.42133 82.9115 6.08C82.7835 5.73867 82.5968 5.44 82.3515 5.184C82.1168 4.928 81.8395 4.72533 81.5195 4.576C81.2102 4.42667 80.8688 4.352 80.4955 4.352C80.2715 4.352 80.0368 4.39467 79.7915 4.48C79.5462 4.56533 79.3168 4.68267 79.1035 4.832C78.8902 4.98133 78.7035 5.15733 78.5435 5.36C78.3835 5.56267 78.2715 5.776 78.2075 6V8.192C78.3568 8.53333 78.5542 8.84267 78.7995 9.12C79.0448 9.38667 79.3275 9.60533 79.6475 9.776C79.9675 9.936 80.2928 10.016 80.6235 10.016Z" fill="#39B54A"/>
</svg>
